# xmcd CD database file
#
# Track frame offsets:
#	150
#	20700
#	48977
#	85128
#	121339
#	143630
#	162305
#	190281
#	210906
#
# Disc length: 3217 seconds
#
# Revision: 0
# Processed by: cddbd v1.4PL0 Copyright (c) Steve Scherf et al.
# Submitted via: CDex 1.50
#
DISCID=730c8f09
DTITLE=Rachel Z - First Time Ever I Saw Your Face
DYEAR=2003
DGENRE=Jazz
TTITLE0=Time To Say Goodbye (E. Maccoll) 
TTITLE1=Fragile (Sting) 
TTITLE2=First Time Ever I Saw Your Face (E. Maccoll) 
TTITLE3=Autumn Leaves (J. Kosma) 
TTITLE4=Heart Shaped Box The Old Country (K. Cobain) 
TTITLE5=Crestfallen (B. Corgan)
TTITLE6=Hurt (T. Reznor)
TTITLE7=In The Wee Small Hours Of The Morning (D. Mann) 
TTITLE8=Don't Give Up (P. Gabriel) 
EXTD=YEAR: 2003
EXTT0=
EXTT1=
EXTT2=
EXTT3=
EXTT4=
EXTT5=
EXTT6=
EXTT7=
EXTT8=
PLAYORDER=
